<svg xmlns="http://www.w3.org/2000/svg" viewBox="0 0 16 16" width="16" height="16" shape-rendering="crispEdges"><path fill="#1b1812" d="M1 0h14v1h-14zM0 1h7v1h-7zM9 1h7v1h-7zM0 2h6v1h-6zM10 2h6v1h-6zM0 3h5v1h-5zM7 3h2v1h-2zM11 3h5v1h-5zM0 4h4v1h-4zM6 4h4v1h-4zM12 4h4v1h-4zM0 5h16v1h-16zM0 6h7v1h-7zM9 6h7v1h-7zM0 7h6v1h-6zM10 7h6v1h-6zM0 8h5v1h-5zM7 8h2v1h-2zM11 8h5v1h-5zM0 9h4v1h-4zM6 9h4v1h-4zM12 9h4v1h-4zM0 10h16v1h-16zM0 11h7v1h-7zM9 11h7v1h-7zM0 12h6v1h-6zM10 12h6v1h-6zM0 13h5v1h-5zM7 13h2v1h-2zM11 13h5v1h-5zM0 14h4v1h-4zM6 14h4v1h-4zM12 14h4v1h-4zM1 15h14v1h-14z"/><path fill="#f1e4c3" d="M7 1h2v1h-2zM6 2h4v1h-4zM5 3h2v1h-2zM9 3h2v1h-2zM4 4h2v1h-2zM10 4h2v1h-2z"/><path fill="#f2a93b" d="M7 6h2v1h-2zM6 7h4v1h-4zM5 8h2v1h-2zM9 8h2v1h-2zM4 9h2v1h-2zM10 9h2v1h-2z"/><path fill="#9b7a43" d="M7 11h2v1h-2zM6 12h4v1h-4zM5 13h2v1h-2zM9 13h2v1h-2zM4 14h2v1h-2zM10 14h2v1h-2z"/></svg>
